<svg width="128" height="128" viewBox="0 0 128 128" fill="none" xmlns="http://www.w3.org/2000/svg">
<rect width="128" height="128" fill="white"/>
<path d="M53.2624 6.58151C53.7035 6.43613 54.4388 6 55.027 6H55.4681C56.0563 6 56.6445 6.43613 56.9386 6.87227L58.7033 9.19829C58.8503 9.63443 59.8797 10.0706 60.4679 10.0706L65.6147 11.8151C66.2029 11.8151 66.644 12.2512 67.0852 12.6873L68.7027 15.4495C69.2909 15.5949 68.8498 16.3218 68.7027 16.7579L65.4676 20.1016C65.1735 20.3923 64.8794 21.2646 64.4383 21.7007L63.85 24.6082V26.6435L64.4383 27.9519C64.8794 28.5334 65.0265 29.4057 65.0265 29.9872L65.1735 30.8594C65.1735 31.2956 65.1735 32.3132 65.0265 32.8947L63.4089 36.5291C63.2618 36.9653 62.6736 37.6922 62.5266 38.2737L59.1444 46.7055C58.7033 47.287 58.7033 48.3047 58.7033 48.8862C58.7033 49.4677 58.8503 50.1946 58.7033 50.6307C57.8209 56.0096 55.4681 69.0935 55.027 70.2566L52.3801 77.8162C52.086 78.2523 51.6448 79.2699 51.6448 79.8514C51.2037 81.4506 51.4978 81.8867 50.6154 83.0497L45.6157 91.3362C45.4687 91.7723 44.7334 92.4992 44.4393 92.6446L40.616 96.8605C40.4689 97.2966 39.8807 97.8782 39.7337 98.4597L36.2045 107.328C36.0574 107.909 36.0574 108.927 36.0574 109.218V118.522C36.0574 119.249 35.7633 119.83 35.6162 120.412L35.028 122.447C34.7339 122.883 34.1457 123.174 33.7046 122.883L31.94 122.011C31.6459 121.72 30.7636 121.429 30.3224 120.848L29.5871 120.412C29.4401 119.83 29.146 119.249 29.146 118.522L29.5871 116.05C29.5871 115.469 29.5871 114.742 29.4401 114.16L27.3814 109.799C27.2343 109.218 26.7932 108.636 26.0579 108.055L21.6464 104.129C21.0582 103.548 20.3229 103.402 19.7347 103.402H19.5877C19.1465 103.402 18.4113 102.966 18.1172 102.385L14.882 97.8782C14.5879 97.442 14.4409 96.7151 14.1468 96.1336L13.2645 92.9353C13.2645 92.4992 12.9704 91.4816 12.9704 91.0454V87.7018C12.9704 87.1203 12.8233 86.5388 12.2351 86.3934L9.73526 84.3581C9.14705 84.2127 9 83.1951 9 82.759L9.14705 81.1598C9.14705 80.5783 9.5882 79.8514 9.5882 79.2699L10.0294 76.9439C10.0294 76.5078 10.6176 75.7809 10.6176 75.3447L11.0587 75.054C11.4999 74.4725 11.794 73.891 11.4999 73.3095L11.0587 63.4238C11.0587 62.9877 11.0587 62.2608 11.4999 61.8247L28.5578 32.1678C28.8519 31.5863 29.4401 30.8594 29.8813 30.4233L33.7046 26.062C34.1457 25.7713 34.7339 25.0444 35.028 24.6082L39.2925 15.1587C39.4396 14.7226 40.3219 14.1411 40.616 14.1411L45.0275 12.542C45.6157 12.2512 46.351 11.9605 47.2333 11.8151L49.8802 11.3789C50.4684 11.0882 51.0566 10.5067 51.0566 10.0706C51.0566 9.63443 51.2037 8.76216 51.6448 8.18065L53.2624 6.58151Z" fill="#3FB195"/>
<path d="M11.622 67.9557C11.4026 68.0364 11.1953 68.1169 11 68.1968C11.1912 68.1155 11.3985 68.0349 11.622 67.9557C18.2186 65.527 35.5969 62.8783 57.5222 70.183C80.1765 77.7306 107.753 68.6934 118.709 63.2313C108.764 71.6727 82.6038 85.8741 57.5222 75.1486C33.3889 64.8285 17.308 65.9401 11.622 67.9557Z" fill="white"/>
<path d="M11.622 67.9557C11.4026 68.0364 11.1953 68.1169 11 68.1968C11.1912 68.1155 11.3985 68.0349 11.622 67.9557C18.2186 65.527 35.5969 62.8783 57.5222 70.183C80.1765 77.7306 107.753 68.6934 118.709 63.2313C108.764 71.6727 82.6038 85.8741 57.5222 75.1486C33.3889 64.8285 17.308 65.9401 11.622 67.9557Z" fill="#3FB195"/>
<path d="M31.9949 66.7077L34.4957 55.2511H40.0395L40.7196 52H25.7309L25.0508 55.2511H30.5945L28.0937 66.7077H31.9949Z" fill="#222222"/>
<path d="M38.7957 68.6939H42.6969L44.0957 63.5931H47.4065L49.6138 70.1835H53.7844L51.2435 63.1521C54.0667 62.2448 55.8248 59.8254 55.8248 57.1539C55.8248 54.1296 53.4507 52 50.0244 52H42.6969L38.7957 68.6939ZM45.9564 55.0747H49.1389C50.8585 55.0747 51.8723 55.9568 51.8723 57.4941C51.8723 59.3591 50.3581 60.6696 48.0867 60.6696H44.6988L45.9564 55.0747Z" fill="#222222"/>
<path d="M67.6063 70.1835H71.5973L69.1976 52H64.719L54.1961 70.1835H58.2384L60.6253 65.8487H67.1572L67.6063 70.1835ZM65.9894 55.793H66.2332L66.9775 62.9127H62.0883L65.9894 55.793Z" fill="#222222"/>
<path d="M81.1973 70.1835L91.2967 52H86.9335L79.8242 65.8739H79.5932L78.2971 52H74.1778L76.5133 70.1835H81.1973Z" fill="#222222"/>
<path d="M102.039 66.9324H93.659L94.6599 62.5094H102.552L103.194 59.4977H95.2887L96.2512 55.2511H104.618L105.298 52H93.0302L89.0905 70.1835H101.371L102.039 66.9324Z" fill="#222222"/>
<path d="M111.311 66.8694H108.585L111.831 52H107.943L104.003 70.1835H107.943L111.311 66.8694Z" fill="#222222"/>
</svg>
